<?xml version="1.0" encoding="utf-8"?>
<!-- Generator: Adobe Illustrator 26.0.3, SVG Export Plug-In . SVG Version: 6.00 Build 0)  -->
<svg version="1.1" id="Layer_1" xmlns="http://www.w3.org/2000/svg" xmlns:xlink="http://www.w3.org/1999/xlink" x="0px" y="0px"
	 viewBox="0 0 362.77 160.64" style="enable-background:new 0 0 362.77 160.64;" xml:space="preserve">
<style type="text/css">
	.st0{fill:#0D224C;}
	.st1{fill:#2CA5DE;}
</style>
<path class="st0" d="M134.84,27.34c0,0.59-0.08,1.31-0.24,2.16c-0.16,0.86-0.46,2.08-0.88,3.69l-19.08,64.69
	c-0.27,0.91-0.62,1.64-1.04,2.2c-0.43,0.56-1.08,1-1.96,1.32c-0.88,0.32-2.14,0.53-3.77,0.64c-1.63,0.11-3.75,0.16-6.37,0.16
	c-2.62,0-4.76-0.07-6.41-0.2c-1.66-0.13-2.95-0.36-3.89-0.68c-0.94-0.32-1.62-0.76-2.04-1.32c-0.43-0.56-0.75-1.27-0.96-2.12
	L76.17,54.44l-0.16-0.72l-0.16,0.72L64.79,97.88c-0.21,0.91-0.52,1.64-0.92,2.2c-0.4,0.56-1.08,1-2.04,1.32
	c-0.96,0.32-2.27,0.53-3.93,0.64c-1.66,0.11-3.79,0.16-6.41,0.16c-2.67,0-4.82-0.07-6.45-0.2c-1.63-0.13-2.91-0.36-3.85-0.68
	c-0.94-0.32-1.62-0.76-2.04-1.32c-0.43-0.56-0.75-1.27-0.96-2.12L19.26,33.2c-0.48-1.55-0.79-2.77-0.92-3.65
	c-0.13-0.88-0.2-1.62-0.2-2.2c0-0.53,0.15-1,0.44-1.4c0.29-0.4,0.83-0.72,1.6-0.96c0.77-0.24,1.82-0.41,3.13-0.52
	c1.31-0.11,2.95-0.16,4.93-0.16c2.14,0,3.87,0.05,5.21,0.16c1.33,0.11,2.38,0.29,3.13,0.56c0.75,0.27,1.27,0.63,1.56,1.08
	c0.29,0.45,0.52,1,0.68,1.64L53,80.25l0.16,0.96l0.16-0.96l13.31-52.5c0.16-0.64,0.41-1.19,0.76-1.64c0.35-0.45,0.87-0.81,1.56-1.08
	c0.69-0.27,1.67-0.45,2.93-0.56c1.25-0.11,2.87-0.16,4.85-0.16c1.98,0,3.58,0.07,4.81,0.2c1.23,0.13,2.2,0.32,2.93,0.56
	c0.72,0.24,1.23,0.56,1.52,0.96c0.29,0.4,0.52,0.87,0.68,1.4l14.27,52.9l0.24,0.88l0.16-0.96l13.63-52.5
	c0.11-0.64,0.32-1.19,0.64-1.64c0.32-0.45,0.85-0.81,1.6-1.08c0.75-0.27,1.76-0.45,3.05-0.56c1.28-0.11,2.91-0.16,4.89-0.16
	c1.98,0,3.59,0.05,4.85,0.16c1.25,0.11,2.24,0.28,2.97,0.52c0.72,0.24,1.21,0.56,1.48,0.96C134.71,26.34,134.84,26.81,134.84,27.34z
	"/>
<path class="st0" d="M190.68,34.16c0,1.92-0.05,3.5-0.16,4.73c-0.11,1.23-0.27,2.19-0.48,2.89c-0.21,0.7-0.5,1.18-0.84,1.44
	c-0.35,0.27-0.79,0.4-1.32,0.4c-0.43,0-0.91-0.09-1.44-0.28c-0.53-0.19-1.14-0.39-1.8-0.6c-0.67-0.21-1.4-0.41-2.21-0.6
	c-0.8-0.19-1.68-0.28-2.64-0.28c-1.12,0-2.24,0.23-3.37,0.68c-1.12,0.45-2.29,1.16-3.49,2.12c-1.2,0.96-2.46,2.24-3.77,3.85
	c-1.31,1.6-2.71,3.58-4.21,5.93V99c0,0.54-0.16,1-0.48,1.4c-0.32,0.4-0.87,0.74-1.64,1c-0.78,0.27-1.8,0.47-3.09,0.6
	c-1.28,0.13-2.91,0.2-4.89,0.2c-1.98,0-3.61-0.07-4.89-0.2c-1.28-0.13-2.31-0.33-3.09-0.6c-0.78-0.27-1.32-0.6-1.64-1
	c-0.32-0.4-0.48-0.87-0.48-1.4V27.5c0-0.53,0.13-1,0.4-1.4c0.27-0.4,0.75-0.73,1.44-1c0.69-0.27,1.59-0.47,2.69-0.6
	c1.09-0.13,2.47-0.2,4.13-0.2c1.71,0,3.13,0.07,4.25,0.2c1.12,0.13,1.99,0.33,2.6,0.6c0.61,0.27,1.05,0.6,1.32,1
	c0.27,0.4,0.4,0.87,0.4,1.4v8.9c1.87-2.67,3.63-4.88,5.29-6.61c1.66-1.74,3.23-3.11,4.73-4.13c1.5-1.01,2.99-1.72,4.49-2.12
	c1.5-0.4,2.99-0.6,4.49-0.6c0.69,0,1.44,0.04,2.24,0.12c0.8,0.08,1.63,0.21,2.49,0.4c0.85,0.19,1.6,0.4,2.24,0.64
	c0.64,0.24,1.11,0.49,1.4,0.76c0.29,0.27,0.51,0.56,0.64,0.88c0.13,0.32,0.25,0.76,0.36,1.32c0.11,0.56,0.19,1.4,0.24,2.52
	C190.65,30.71,190.68,32.23,190.68,34.16z"/>
<g>
	<path class="st0" d="M288.31,33.95c0.24-0.31,1.11-1.37,2.58-2.78v-8.52c0-0.53-0.16-1.01-0.48-1.44
		c-0.32-0.43-0.87-0.79-1.64-1.08c-0.77-0.29-1.8-0.52-3.09-0.68c-1.28-0.16-2.91-0.24-4.89-0.24c-1.98,0-3.61,0.08-4.89,0.24
		c-1.28,0.16-2.31,0.39-3.09,0.68c-0.77,0.29-1.32,0.66-1.64,1.08c-0.32,0.43-0.48,0.91-0.48,1.44v28.38v2.43L288.31,33.95z"/>
	<path class="st0" d="M199.94,43.3c0.29,0.69,0.67,1.23,1.12,1.6c0.45,0.38,0.97,0.56,1.56,0.56c0.85,0,1.96-0.37,3.33-1.12
		c1.36-0.75,3.06-1.58,5.09-2.49c2.03-0.91,4.37-1.74,7.01-2.48c2.65-0.75,5.65-1.12,9.02-1.12c2.57,0,4.72,0.27,6.45,0.8
		c1.74,0.54,3.13,1.36,4.17,2.49c1.04,1.12,1.79,2.52,2.24,4.21c0.45,1.68,0.58,1.18,0.58,3.43l0.55,12.2l1.82,21.93
		c2.87-2.39,4.6-4.19,4.65-4.25l12.87-14.22V51.15c0-4.91-0.59-9.16-1.76-12.74c-1.18-3.58-3.05-6.5-5.61-8.78
		c-2.56-2.27-5.84-3.95-9.82-5.05c-3.98-1.09-8.78-1.64-14.39-1.64c-3.15,0-6.21,0.25-9.18,0.76c-2.97,0.51-5.71,1.16-8.22,1.96
		c-2.51,0.8-4.7,1.67-6.57,2.61c-1.87,0.94-3.18,1.79-3.93,2.56c-0.75,0.78-1.26,1.64-1.52,2.61c-0.27,0.96-0.4,2.27-0.4,3.93
		c0,1.23,0.08,2.35,0.24,3.37C199.42,41.75,199.64,42.6,199.94,43.3z"/>
	<path class="st0" d="M245.69,101.67c0.32,0.1,0.66,0.19,1.06,0.26c1.09,0.19,2.85,0.28,5.25,0.28c2.24,0,3.94-0.09,5.09-0.28
		c1.15-0.19,1.99-0.49,2.53-0.92c0.53-0.43,0.8-1.01,0.8-1.76v-9.39C254.98,94.87,250.05,98.71,245.69,101.67z"/>
	<path class="st0" d="M279.98,68.79c-3.2,3.94-6.3,7.5-9.29,10.74v60.52c0,0.53,0.16,1.01,0.48,1.44c0.32,0.43,0.87,0.79,1.64,1.08
		c0.77,0.29,1.8,0.52,3.09,0.68c1.28,0.16,2.91,0.24,4.89,0.24c1.98,0,3.61-0.08,4.89-0.24c1.28-0.16,2.31-0.39,3.09-0.68
		c0.77-0.29,1.32-0.66,1.64-1.08c0.32-0.43,0.48-0.91,0.48-1.44v-33.66V81.49V55.71C287.98,59.09,284.38,63.39,279.98,68.79z"/>
</g>
<path class="st1" d="M238.01,60.73l-0.71-11.79c0,0-37.01-9.98-51.27,20.6c-6.61,14.17,0.85,29.13,11.06,35.35
	c11.5,6.99,26.69,4.48,26.69,4.48s21.88-1.79,54.55-41.92c14.72-18.08,20.66-23.92,20.66-23.92s7.7-9.61,21.67-9.23
	c13.97,0.38,18.36,16.01,18.52,20.78c0.16,4.77,0.98,23.35-20.12,28.76c0,0-17.67,1.99-24.34-3.23l0.53,13.6
	c0,0,17.57,7.06,34.9-1.23c15.11-7.23,21.63-20.41,21.69-37.22c0.07-16.53-14.89-34.58-34.28-33.79
	c-17.93,0.73-27.63,13.34-27.63,13.34l-22.16,24.55l-18.69,20.65c0,0-16.83,17.79-34.4,16.84c-17.57-0.95-20.41-12.8-17.26-22.17
	C200.57,65.82,212.54,55.98,238.01,60.73z"/>
</svg>
